<svg id="horse" width="20" height="17" viewBox="0 0 20 17" xmlns="http://www.w3.org/2000/svg">
<path d="M18.1464 17C18.3883 17 18.6161 16.9706 18.6523 16.9346C18.6886 16.8985 18.7183 16.7496 18.7183 16.6039C18.7183 16.458 18.8134 16.2187 18.9294 16.0723C19.126 15.8243 19.1374 15.7213 19.093 14.5803C19.0593 13.7117 19.0772 13.3677 19.1542 13.3997C19.2141 13.4243 19.4359 13.5179 19.6472 13.6075C20.0315 13.7705 20.0315 13.7705 19.9696 13.4936C19.9357 13.3413 19.8618 12.9902 19.8055 12.7131C19.7493 12.4361 19.661 11.5295 19.6094 10.6987C19.558 9.86768 19.5147 8.69833 19.5133 8.09986C19.5114 7.36539 19.4591 6.8616 19.3519 6.54939C19.2493 6.2507 19.072 5.99533 18.8511 5.82826C18.6632 5.68604 18.2983 5.51531 18.0403 5.44877C17.7824 5.38242 17.3629 5.19688 17.1079 5.03657C16.8529 4.87607 16.3721 4.68761 16.0396 4.61742C15.5441 4.51323 15.2328 4.51323 14.3212 4.61742C13.5793 4.70205 12.6322 4.72472 11.4816 4.68524C10.5321 4.65252 9.63044 4.59658 9.47789 4.56057C9.23913 4.50445 9.20836 4.45912 9.25792 4.23556C9.30619 4.01767 9.271 3.95917 9.04015 3.87143C8.88871 3.81403 8.45871 3.42651 8.08453 3.01028C7.71017 2.59405 7.15305 2.06212 6.84648 1.82851C6.53992 1.59471 6.10052 1.30845 5.87023 1.19219C5.63976 1.07594 5.15209 0.911968 4.7862 0.827699C4.37683 0.733559 3.94683 0.698464 3.66827 0.736485C3.23993 0.79498 3.19184 0.776516 2.77971 0.399043C2.54003 0.179688 2.32908 0 2.31084 0C2.29279 0 2.27786 0.208021 2.27786 0.462108C2.27786 0.836656 2.22388 0.980882 1.99212 1.22363C1.83497 1.38833 1.60062 1.74424 1.47147 2.01441C1.34214 2.28476 0.958197 2.85143 0.618103 3.27387C0.103539 3.91329 0 4.1045 0 4.41634C0 4.62236 0.0556374 4.8355 0.123804 4.88997C0.191786 4.94444 0.386339 5.01829 0.556017 5.05412C0.806023 5.10713 0.92651 5.06746 1.19273 4.84445C1.37309 4.6931 1.65184 4.51414 1.81175 4.44651C1.97167 4.37905 2.25189 4.32367 2.43446 4.32367C2.61704 4.32367 2.92913 4.24671 3.12791 4.15257C3.48956 3.98147 3.48957 3.98147 3.77642 4.32239C3.93412 4.50993 4.15723 4.90752 4.27201 5.20602C4.38678 5.50434 4.54817 5.99168 4.63034 6.28909C4.71269 6.58631 4.78749 7.18332 4.7967 7.61563C4.80849 8.17005 4.87316 8.53199 5.01613 8.84402C5.12777 9.08714 5.38127 9.49587 5.57969 9.75233C5.90394 10.1717 5.95074 10.3104 6.04452 11.1281C6.10181 11.6284 6.12208 12.1949 6.08947 12.3873C6.05631 12.5838 6.10328 13.0555 6.19706 13.464C6.30981 13.9563 6.34574 14.4045 6.30797 14.8512C6.27739 15.2143 6.18251 15.6449 6.09739 15.8084C6.01227 15.9718 5.78438 16.2251 5.59112 16.3714C5.39767 16.5178 5.19428 16.7212 5.13901 16.8238C5.04505 16.9982 5.07545 17.0082 5.60825 16.9804C6.14953 16.9523 6.18195 16.936 6.25509 16.6545C6.30078 16.479 6.45462 16.2865 6.63241 16.1822C6.89567 16.0279 6.93271 15.952 6.93271 15.5658C6.93271 15.3236 7.01966 14.5855 7.12615 13.9254C7.23245 13.2655 7.35718 12.438 7.40305 12.0866C7.4867 11.4479 7.4867 11.4479 7.66559 12.2341C7.76397 12.6665 7.95133 13.2578 8.08177 13.5481C8.21239 13.8384 8.3666 14.369 8.42445 14.7273C8.4823 15.0856 8.50145 15.5276 8.46719 15.7096C8.43292 15.8915 8.27927 16.1569 8.1258 16.2992C7.97234 16.4414 7.81555 16.6596 7.77742 16.7843C7.71054 17.0035 7.72546 17.0099 8.23653 16.9808C8.74262 16.9521 8.7662 16.9384 8.79678 16.656C8.81428 16.4938 8.93145 16.265 9.0571 16.1473C9.25884 15.9582 9.27597 15.8833 9.20283 15.5086C9.15732 15.275 9.1179 14.7079 9.11514 14.2486C9.11237 13.7892 9.06834 13.1479 9.01712 12.8237C8.96609 12.4994 8.89424 11.8744 8.85758 11.4346C8.79089 10.6352 8.79088 10.6352 9.61975 10.5652C10.0755 10.5268 10.8051 10.4303 11.2408 10.351C11.6767 10.2717 12.2784 10.1388 12.578 10.0558C12.8776 9.97279 13.3811 9.79182 13.697 9.65362C14.2713 9.40228 14.2713 9.40228 14.5388 9.59787C14.686 9.70554 14.9474 10.0249 15.1197 10.3075C15.2921 10.5903 15.6153 11.3843 15.8378 12.072C16.1341 12.9878 16.2424 13.4874 16.2424 13.9382C16.2424 14.2767 16.1696 14.8706 16.0808 15.2581C15.9651 15.7634 15.8441 16.0326 15.6527 16.2111C15.506 16.3476 15.3046 16.5836 15.205 16.7351C15.0241 17.0106 15.0241 17.0106 15.6084 16.9808C16.1689 16.9521 16.1971 16.938 16.2956 16.6355C16.352 16.462 16.4913 16.2189 16.605 16.095C16.7549 15.9319 16.8889 15.478 17.0921 14.4451C17.2461 13.6614 17.3653 12.7809 17.357 12.4882C17.3443 12.0402 17.3627 11.9782 17.4745 12.0952C17.5477 12.1716 17.6825 12.3824 17.7745 12.5635C17.8664 12.7447 18.0064 13.0984 18.0856 13.3496C18.1647 13.6009 18.2564 14.271 18.2894 14.8392C18.3478 15.8458 18.3428 15.8795 18.0947 16.1723C17.9545 16.3375 17.8098 16.5915 17.7732 16.7364C17.7083 16.9927 17.7187 17 18.1464 17ZM18.5847 11.2147C18.4967 11.1421 18.3795 10.9217 18.3244 10.725C18.2693 10.5281 18.224 9.99637 18.2236 9.54322C18.2235 9.09007 18.2767 8.43072 18.3423 8.07811C18.4523 7.48567 18.4679 7.45861 18.5492 7.72275C18.5974 7.87996 18.6614 8.75975 18.691 9.67757C18.7404 11.207 18.7316 11.3355 18.5847 11.2147Z"/>
</svg>
